<svg width="1091.113" height="81.887" viewBox="0 0 1091.113 81.887" xmlns="http://www.w3.org/2000/svg"><g id="svgGroup" stroke-linecap="round" fill-rule="evenodd" font-size="9pt" stroke="#000" stroke-width="0.25mm" fill="#000" style="stroke:#000;stroke-width:0.25mm;fill:#000"><path d="M 392.773 0.977 L 392.773 30.518 L 369.385 30.518 L 369.385 0.977 L 348.486 0.977 L 348.486 79.688 L 369.385 79.688 L 369.385 50.049 L 392.773 50.049 L 392.773 79.688 L 413.623 79.688 L 413.623 0.977 L 392.773 0.977 Z M 66.113 79.688 L 39.014 39.355 L 63.135 0.977 L 39.111 0.977 L 20.85 30.322 L 20.85 0.977 L 0 0.977 L 0 79.688 L 20.85 79.688 L 20.85 49.756 L 40.771 79.688 L 66.113 79.688 Z M 598.34 79.688 L 622.412 79.688 L 635.596 56.445 L 648.828 79.688 L 672.9 79.688 L 647.852 38.77 L 671.582 0.977 L 647.656 0.977 L 635.645 21.777 L 623.584 0.977 L 599.658 0.977 L 623.291 38.818 L 598.34 79.688 Z M 1016.553 79.688 L 1040.625 79.688 L 1053.809 56.445 L 1067.041 79.688 L 1091.113 79.688 L 1066.064 38.77 L 1089.795 0.977 L 1065.869 0.977 L 1053.857 21.777 L 1041.797 0.977 L 1017.871 0.977 L 1041.504 38.818 L 1016.553 79.688 Z M 491.943 51.074 L 491.943 0.977 L 470.898 0.977 L 470.898 51.025 A 10.606 10.606 0 0 1 465.459 60.203 A 12.351 12.351 0 0 1 459.229 61.914 A 11.274 11.274 0 0 1 447.729 52.299 A 11.072 11.072 0 0 1 447.656 51.025 L 447.656 0.977 L 426.611 0.977 L 426.611 51.074 C 426.611 69.141 441.26 81.885 459.277 81.885 A 34.187 34.187 0 0 0 480.94 74.489 C 487.687 69.005 491.943 60.813 491.943 51.074 Z M 895.752 51.074 L 895.752 0.977 L 874.707 0.977 L 874.707 51.025 A 10.606 10.606 0 0 1 869.267 60.203 A 12.351 12.351 0 0 1 863.037 61.914 A 11.274 11.274 0 0 1 851.538 52.299 A 11.072 11.072 0 0 1 851.465 51.025 L 851.465 0.977 L 830.42 0.977 L 830.42 51.074 C 830.42 69.141 845.068 81.885 863.086 81.885 A 34.187 34.187 0 0 0 884.749 74.489 C 891.495 69.005 895.752 60.813 895.752 51.074 Z M 262.842 20.41 L 262.842 0.977 L 211.816 0.977 L 211.816 79.688 L 262.842 79.688 L 262.842 60.107 L 232.471 60.107 L 232.471 48.828 L 257.471 48.828 L 257.471 31.396 L 232.471 31.396 L 232.471 20.41 L 262.842 20.41 Z M 340.967 79.688 L 319.873 48.096 C 327.588 44.58 333.496 36.377 333.496 26.563 A 25.116 25.116 0 0 0 317.131 3.403 A 33.61 33.61 0 0 0 304.346 0.977 L 274.463 0.977 L 274.561 79.688 L 295.459 79.688 L 295.459 45.508 L 316.504 79.688 L 340.967 79.688 Z M 762.305 20.41 L 762.305 0.781 L 711.279 0.781 L 711.279 79.785 L 731.934 79.785 L 731.934 50.635 L 756.934 50.635 L 756.934 33.154 L 731.934 33.154 L 731.934 20.41 L 762.305 20.41 Z M 128.027 79.688 L 150.928 79.688 L 114.307 0 L 104.395 0 L 67.822 79.688 L 90.674 79.688 L 94.678 70.508 L 124.072 70.508 L 128.027 79.688 Z M 202.93 0.977 L 144.238 0.977 L 144.238 20.508 L 163.135 20.508 L 163.135 79.688 L 184.082 79.688 L 184.082 20.508 L 202.93 20.508 L 202.93 0.977 Z M 934.424 0.977 L 908.74 1.025 L 908.74 79.688 L 934.424 79.688 A 56.387 56.387 0 0 0 952.882 76.839 C 966.613 72.086 975.254 61.578 977.146 46.785 A 50.101 50.101 0 0 0 977.539 40.43 C 977.539 15.82 961.182 0.879 934.424 0.977 Z M 530.811 0.977 L 504.932 0.977 L 504.932 79.688 L 538.525 79.688 A 28.294 28.294 0 0 0 551.314 76.767 C 559.694 72.554 564.746 64.322 564.746 55.664 A 21.257 21.257 0 0 0 562.052 45.231 C 559.147 40.04 554.282 36.512 549.416 35.591 A 13.399 13.399 0 0 0 546.924 35.352 C 550.146 35.352 555.518 29.541 555.518 21.436 A 19.294 19.294 0 0 0 547.118 6.039 C 543.789 3.603 539.626 1.887 534.915 1.25 A 30.629 30.629 0 0 0 530.811 0.977 Z M 792.09 60.059 L 792.09 0.977 L 771.191 0.977 L 771.191 79.688 L 822.217 79.688 L 822.217 60.059 L 792.09 60.059 Z M 987.793 79.688 L 1008.691 79.688 L 1008.691 0.977 L 987.793 0.977 L 987.793 79.688 Z M 934.082 60.01 L 929.102 60.01 L 929.102 20.508 L 933.887 20.508 C 947.998 20.508 956.592 28.027 956.592 40.381 A 20.198 20.198 0 0 1 954.3 50.132 C 950.882 56.422 943.792 60.01 934.082 60.01 Z M 535.352 60.693 L 525.049 60.693 L 525.049 45.752 L 535.498 45.801 A 14.522 14.522 0 0 1 539.079 46.211 C 542.602 47.11 544.585 49.444 544.719 52.804 A 9.247 9.247 0 0 1 544.727 53.174 A 6.987 6.987 0 0 1 543.844 56.697 C 542.771 58.573 540.823 59.759 538.566 60.316 A 13.46 13.46 0 0 1 535.352 60.693 Z M 295.361 19.775 L 303.906 19.775 A 8.245 8.245 0 0 1 312.194 25.841 A 8.08 8.08 0 0 1 312.402 27.686 C 312.402 32.482 308.412 35.596 304.009 35.596 A 9.342 9.342 0 0 1 303.906 35.596 L 295.361 35.547 L 295.361 19.775 Z M 101.27 55.225 L 109.375 36.572 L 117.432 55.225 L 101.27 55.225 Z M 530.029 31.494 L 525.049 31.494 L 525.049 19.141 L 530.176 19.141 A 10.984 10.984 0 0 1 533.768 19.702 C 536.328 20.591 537.988 22.503 537.988 25.195 A 5.737 5.737 0 0 1 536.924 28.643 C 535.573 30.501 533.049 31.494 530.029 31.494 Z" vector-effect="non-scaling-stroke"/></g></svg>
